<?xml version="1.0" encoding="UTF-8"?>
<svg xmlns="http://www.w3.org/2000/svg" height="100px" width="100px" viewBox="0 0 283.465 283.465" version="1.1" xmlns:xlink="http://www.w3.org/1999/xlink">
<g fill="#54C2C3">
	<path d="m213.89 244.3c-11.737 11.429-26.208 17.96-43.162 19.476-7.902 2.867-15.51 5.07-22.798 6.844 5.09 0.724 10.087 1.11 14.942 1.11h0.015c24.218 0 44.347-8.531 59.821-25.476 3.86-4.227 7.427-9.112 10.686-14.62-0.009 0.004-0.019 0.028-0.028 0.033 0.009-0.007 0.019-0.005 0.028-0.012 5.249-8.869 9.688-19.283 13.205-30.935 4.186-13.865 7.065-29.464 8.467-46.238-1.24-8.35-3.669-16.512-6.77-24.24 0.021 4.259-0.058 8.564-0.247 12.877-1.286 29.427-7.06 55.532-16.372 75.323-4.202 8.931-9.123 16.578-14.678 22.661-1.012 1.108-2.053 2.164-3.109 3.193"/>
	<path d="m50.53 206.54c-4.767-5.356-9.044-10.851-12.742-16.374-5.405-8.074-9.567-16.206-12.162-24.05-6.258-18.924 6.854-38.595 17.958-51 1.398-5.367 3.069-10.685 5.034-15.988-22.292 20.202-38.228 45.539-30.332 69.415 4.002 12.1 11.088 24.518 20.606 36.444 4.689 5.876 9.973 11.631 15.767 17.171 6.064 5.799 12.687 11.362 19.787 16.577 14.645 10.755 30.268 19.133 45.75 24.761 5.886-0.29 12.095-1.078 18.612-2.382-33.23-7.62-66.033-29.58-88.28-54.58z"/>
	<path d="m240.44 54.749c-6.843-9.125-19.398-13.751-37.317-13.751-2.039 0-4.119 0.061-6.231 0.173-4.934 0.261-10.047 0.818-15.231 1.587-29.065 4.313-60.411 15.477-75.559 20.875-11.502 4.099-25.32 11.313-38.633 20.57-2.598 4.97-4.877 9.911-6.867 14.858 14.896-12.156 32.566-22.613 48.094-28.146 16.081-5.73 50.787-18.091 80.671-21.368 4.736-0.52 9.356-0.819 13.756-0.819 0.543 0 1.066 0.015 1.597 0.024 14.476 0.245 24.419 3.813 29.535 10.636 5.733 7.646 10.112 23.361 12.365 42.414 3.222 5.354 6.363 11.158 9.186 17.305-1.22-28.586-6.85-52.98-15.37-64.351z"/>
</g>
<g fill="#2A2A2A">
	<path d="m206.69 235.25c-5.463 2.86-10.803 5.504-16.021 7.936-18.966 8.839-36.293 14.699-51.862 17.814-6.517 1.304-12.726 2.213-18.612 2.503-1.675 0.083-3.334 0.154-4.957 0.154-20.426 0-34.518-6.662-44.245-15.824-8.094-7.624-13.16-16.977-16.335-25.667-5.794-5.54-11.077-11.295-15.767-17.171 1.416 10.511 5.275 27.016 15.781 41.438 2.578 3.538 5.421 6.756 8.515 9.652 13.194 12.355 30.945 18.817 52.05 18.817 10.052 0 20.969-1.423 32.693-4.277 7.271-1.77 14.888-4.255 22.771-7.114 0.017-0.001-0.018 0.001 0 0 7.982-2.896 16.288-6.269 24.874-10.272 0.004 0.018 0.011 0.036 0.015 0.054 5.326-2.482 10.765-5.173 16.316-8.08 0.669-0.351 1.326-0.707 1.983-1.062 1.056-1.029 2.097-2.085 3.109-3.193 5.555-6.083 10.477-13.73 14.678-22.661-6.88 6.17-15.21 11.83-24.98 16.95z"/>
	<path d="m255.8 119.11c-2.822-6.147-5.964-11.951-9.186-17.305-1.692-2.812-3.405-5.505-5.106-8.052-2.02-3.028-9.67-14.219-20.899-27.539-4.715-5.593-10.066-11.562-15.895-17.459-0.531-0.009-1.054-0.024-1.597-0.024-4.4 0-9.02 0.299-13.756 0.819 0.989 0.917 1.98 1.847 2.976 2.804 7.833 7.532 14.889 15.372 20.833 22.496 10.226 12.257 17.146 22.389 18.986 25.146 5.734 8.588 11.64 18.885 16.14 30.102 3.101 7.729 5.53 15.892 6.77 24.242 1.234 8.307 1.297 16.794-0.337 25.212-0.24 1.234-0.501 2.467-0.815 3.697-1.548 6.068-3.994 11.847-7.314 17.331-3.517 11.652-7.956 22.071-13.205 30.94 16.433-12.834 26.969-28.066 31.415-45.492 0.504-1.972 0.913-3.947 1.253-5.918 3.71-21.39-1.85-42.7-10.25-60.99z"/>
	<path d="m132.78 8.565c-14.309 0-27.016 6.089-37.771 18.099-3.527 3.939-6.849 7.813-9.986 11.636-17.484 21.304-29.042 40.965-36.404 60.833-1.917 5.172-3.549 10.36-4.926 15.593-0.036 0.04-0.072 0.076-0.108 0.117-2.957 11.351-4.723 22.889-5.598 34.889-0.911 13-0.859 26.039-0.199 40.217 3.697 5.523 7.975 11.128 12.742 16.485-0.704-4.081-0.994-7.523-1.109-9.452-1.025-17.122-1.292-32.25-0.217-47.25 1.329-17.88 4.72-34.181 11.265-50.564 0.043-0.036 0.085-0.072 0.128-0.107 1.989-4.948 4.269-9.889 6.867-14.858 6.964-13.322 16.217-26.857 28.365-41.327 2.406-2.864 4.919-5.764 7.556-8.709 8.651-9.66 18.266-14.356 29.395-14.356 14.088 0 30.818 7.891 48.877 22.948 5.184-0.77 10.297-1.326 15.231-1.587-18.94-17.536-41.73-32.615-64.11-32.615z"/>
</g>
<g fill="#161716">
	<path d="m95.366 108.19v13.923h16.9v-13.923h3.313v33.196h-3.313v-16.005h-16.9v16.005h-3.34v-33.196h3.336z"/>
	<path d="m128.49 136.69c0.544 0.544 0.817 1.205 0.817 1.981 0 0.761-0.272 1.414-0.817 1.958-0.545 0.545-1.198 0.817-1.959 0.817-0.776 0-1.433-0.272-1.97-0.817-0.537-0.544-0.806-1.197-0.806-1.958 0-0.776 0.269-1.437 0.806-1.981 0.537-0.545 1.194-0.817 1.97-0.817 0.76 0.01 1.41 0.28 1.96 0.82z"/>
	<path d="m136.4 132.97c1.985 3.656 4.276 5.484 6.872 5.484 1.12 0 2.171-0.261 3.156-0.784 0.985-0.522 1.731-1.216 2.239-2.082 0.507-0.866 0.761-1.791 0.761-2.776 0-1.104-0.373-2.194-1.119-3.268-1.044-1.478-2.947-2.985-5.708-4.522-2.776-2.089-4.492-3.604-5.148-4.544-1.179-1.552-1.769-3.246-1.769-5.081 0-1.448 0.343-2.761 1.03-3.94s1.66-2.115 2.921-2.809 2.63-1.041 4.107-1.041c1.552 0 3.007 0.392 4.365 1.175s2.798 2.212 4.32 4.287l-2.709 2.037c-1.238-1.642-2.298-2.728-3.178-3.257-0.881-0.53-1.843-0.794-2.888-0.794-1.328 0-2.417 0.407-3.268 1.22s-1.276 1.81-1.276 2.989c0 0.716 0.149 1.417 0.447 2.104 0.299 0.687 0.851 1.417 1.657 2.194 0.433 0.433 1.865 1.544 4.298 3.335 2.865 2.119 4.831 3.873 5.898 5.261s1.6 2.91 1.6 4.566c0 2.417-0.914 4.514-2.742 6.29s-4.048 2.664-6.66 2.664c-2.029 0-3.865-0.537-5.506-1.612-1.642-1.074-3.149-2.873-4.522-5.395l2.83-1.71z"/>
	<path d="m164.21 136.69c0.544 0.544 0.817 1.205 0.817 1.981 0 0.761-0.272 1.414-0.817 1.958-0.545 0.545-1.198 0.817-1.959 0.817-0.776 0-1.433-0.272-1.97-0.817-0.537-0.544-0.806-1.197-0.806-1.958 0-0.776 0.269-1.437 0.806-1.981 0.537-0.545 1.194-0.817 1.97-0.817 0.77 0.01 1.42 0.28 1.96 0.82z"/>
	<path d="m201.09 141.29h-3.537l-5.216-10.946h-14.326l-5.171 10.946h-3.716l15.692-33.196h0.806l15.48 33.2zm-21.6-14.12h11.372l-5.641-12.043-5.73 12.04z"/>
	<path d="m211.14 136.69c0.544 0.544 0.817 1.205 0.817 1.981 0 0.761-0.272 1.414-0.817 1.958-0.545 0.545-1.198 0.817-1.959 0.817-0.776 0-1.433-0.272-1.97-0.817-0.537-0.544-0.806-1.197-0.806-1.958 0-0.776 0.269-1.437 0.806-1.981 0.537-0.545 1.194-0.817 1.97-0.817 0.76 0.01 1.41 0.28 1.96 0.82z"/>
	<path d="m79.23 163.15c-1.016-1.333-2.24-2.341-3.674-3.023-1.434-0.683-3.007-1.024-4.721-1.024-1.883 0-3.624 0.45-5.221 1.349s-2.838 2.108-3.721 3.626-1.325 3.229-1.325 5.134c0 2.867 0.983 5.176 2.951 6.927s4.449 2.626 7.443 2.626c3.301 0 6.057-1.291 8.268-3.872l1.872 1.412c-1.174 1.492-2.639 2.645-4.396 3.46-1.756 0.814-3.713 1.222-5.872 1.222-4.126 0-7.379-1.37-9.759-4.11-1.989-2.316-2.983-4.94-2.983-7.871 0-3.438 1.208-6.337 3.626-8.696 2.417-2.359 5.44-3.539 9.069-3.539 2.2 0 4.187 0.437 5.958 1.309 1.772 0.873 3.224 2.098 4.356 3.674l-1.871 1.39z"/>
	<path d="m100.33 165.45c1.598 1.777 2.396 3.877 2.396 6.3s-0.846 4.541-2.539 6.355-3.867 2.722-6.522 2.722c-2.666 0-4.842-0.907-6.53-2.722s-2.531-3.933-2.531-6.355c0-2.412 0.799-4.507 2.396-6.284 1.767-1.947 3.989-2.92 6.665-2.92 2.675 0.01 4.896 0.98 6.662 2.91zm-11.44 1.35c-1.333 1.375-2 3.036-2 4.983 0 1.259 0.304 2.436 0.913 3.531 0.608 1.095 1.431 1.936 2.468 2.523s2.168 0.88 3.396 0.88c1.249 0 2.389-0.293 3.42-0.88 1.032-0.587 1.849-1.428 2.452-2.523s0.904-2.272 0.904-3.531c0-1.947-0.667-3.607-2-4.983s-2.925-2.063-4.777-2.063c-1.848 0-3.44 0.69-4.773 2.06z"/>
	<path d="m106.82 172.36c-0.032-0.91 0.005-1.682 0.111-2.317 0.233-2 0.741-3.465 1.523-4.396 0.762-0.814 1.54-1.444 2.333-1.888 1.312-0.561 2.809-0.825 4.491-0.793 1.312 0 2.525 0.331 3.642 0.992s1.912 1.55 2.389 2.666c0.476 1.116 0.714 2.865 0.714 5.245v8.95h-2.222v-8.299c0-2.01-0.084-3.354-0.254-4.031-0.265-1.153-0.788-1.97-1.571-2.452-0.783-0.481-1.941-0.722-3.475-0.722-1.354 0-2.56 0.392-3.618 1.174s-1.55 1.852-1.476 3.206c-0.201 0.868-0.301 2.449-0.301 4.745v6.379h-2.253v-6.602l-0.03-1.86z"/>
	<path d="m129.93 158.95c-0.952 0.508-1.566 1.909-1.841 4.205v1.746h4.126v1.92h-4.142v14.028h-2.254v-18.075c0.032-1.417 0.323-2.582 0.873-3.491 0.846-1.756 2.201-2.666 4.063-2.729 0.952-0.222 1.989 0.005 3.11 0.683-0.18 0.444-0.413 1.063-0.698 1.856-1.1-0.6-2.18-0.65-3.24-0.15z"/>
	<path d="m139.31 156.68v24.137h-2.253v-24.137h2.25z"/>
	<path d="m145.9 162.99v8.125c0 1.989 0.106 3.354 0.317 4.094 0.317 1.068 0.926 1.912 1.825 2.531s1.978 0.928 3.237 0.928c1.248 0 2.306-0.301 3.174-0.905 0.867-0.603 1.465-1.396 1.793-2.38 0.233-0.667 0.349-2.09 0.349-4.269v-8.125h2.285v8.553c0 2.402-0.283 4.208-0.849 5.419s-1.41 2.158-2.531 2.841c-1.121 0.682-2.528 1.023-4.221 1.023-1.704 0-3.121-0.341-4.253-1.023-1.132-0.683-1.979-1.64-2.539-2.873-0.561-1.232-0.841-3.086-0.841-5.562v-8.379h2.25z"/>
	<path d="m180.36 175.62c-0.603 1.217-1.312 2.195-2.126 2.936-0.814 0.74-1.73 1.304-2.746 1.69s-2.163 0.579-3.443 0.579c-2.835 0-5.052-0.928-6.649-2.785-1.597-1.856-2.396-3.954-2.396-6.292 0-2.211 0.677-4.179 2.031-5.903 1.714-2.201 4.015-3.301 6.903-3.301 2.952 0 5.316 1.126 7.094 3.38 1.259 1.587 1.894 3.565 1.904 5.935h-15.631c0.042 2.031 0.688 3.695 1.936 4.991 1.249 1.296 2.788 1.944 4.618 1.944 0.889 0 1.751-0.156 2.587-0.468 0.835-0.312 1.547-0.722 2.134-1.229 0.587-0.508 1.225-1.333 1.912-2.476l1.89 1.01zm-3.17-8.54c-0.571-0.714-1.328-1.291-2.27-1.73-0.941-0.439-1.931-0.659-2.967-0.659-1.703 0-3.168 0.55-4.396 1.65-0.889 0.804-1.56 2.005-2.015 3.603h12.949c-0.3-1.19-0.73-2.15-1.3-2.86z"/>
	<path d="m185.07 172.36c-0.032-0.91 0.005-1.682 0.111-2.317 0.232-2 0.74-3.465 1.523-4.396 0.762-0.814 1.539-1.444 2.333-1.888 1.312-0.561 2.809-0.825 4.491-0.793 1.312 0 2.526 0.331 3.642 0.992s1.913 1.55 2.388 2.666c0.477 1.116 0.714 2.865 0.714 5.245v8.95h-2.222v-8.299c0-2.01-0.084-3.354-0.254-4.031-0.265-1.153-0.788-1.97-1.571-2.452-0.783-0.481-1.941-0.722-3.476-0.722-1.354 0-2.56 0.392-3.618 1.174s-1.55 1.852-1.476 3.206c-0.201 0.868-0.302 2.449-0.302 4.745v6.379h-2.253v-6.602l-0.02-1.86z"/>
	<path d="m211.32 178.36c0.286 0.793 0.519 1.413 0.698 1.857-1.164 0.444-2.201 0.65-3.11 0.619-1.714-0.095-3.068-0.984-4.063-2.666-0.603-1.058-0.894-2.222-0.873-3.491v-18.075h2.254v8.41h4.142v1.92h-4.126v7.363c-0.063 1.82 0.55 3.221 1.841 4.206 1.06 0.5 2.14 0.45 3.24-0.14z"/>
	<path d="m232.12 175.62c-0.603 1.217-1.312 2.195-2.126 2.936-0.814 0.74-1.73 1.304-2.746 1.69s-2.163 0.579-3.443 0.579c-2.835 0-5.052-0.928-6.649-2.785-1.597-1.856-2.396-3.954-2.396-6.292 0-2.211 0.677-4.179 2.031-5.903 1.714-2.201 4.015-3.301 6.903-3.301 2.952 0 5.316 1.126 7.094 3.38 1.259 1.587 1.894 3.565 1.904 5.935h-15.631c0.042 2.031 0.688 3.695 1.936 4.991 1.249 1.296 2.788 1.944 4.618 1.944 0.889 0 1.751-0.156 2.587-0.468 0.835-0.312 1.547-0.722 2.134-1.229 0.587-0.508 1.225-1.333 1.912-2.476l1.89 1.01zm-3.18-8.54c-0.571-0.714-1.328-1.291-2.27-1.73-0.941-0.439-1.931-0.659-2.967-0.659-1.703 0-3.168 0.55-4.396 1.65-0.889 0.804-1.56 2.005-2.015 3.603h12.949c-0.28-1.19-0.72-2.15-1.29-2.86z"/>
</g>
</svg>
