<svg xmlns="http://www.w3.org/2000/svg" viewBox="0 0 40 42.01"><defs><style>.a{fill:#ccd2d9;}.b{fill:none;}</style></defs><title>logo-small</title><path class="a" d="M153.34,47.7c0,.2-.08.39-.13.59-.84,3.29-3.34,6.05-7.44,8.2-.87.45-1.71.87-2.53,1.25a5.12,5.12,0,0,1,.78,1.59c.84-.39,1.69-.81,2.57-1.27,4.56-2.39,7.37-5.53,8.34-9.33.08-.32.15-.63.2-.94A13.42,13.42,0,0,0,153.34,47.7Z" transform="translate(-115.73 -20.73)"/><path class="a" d="M124.37,58.47c-2.89-2.72-3.34-6.83-3.4-8a54.45,54.45,0,0,1,0-7.43h-1.77a55.89,55.89,0,0,0,0,7.53,15,15,0,0,0,2.59,7.65,10.39,10.39,0,0,0,1.35,1.52A4.64,4.64,0,0,0,124.37,58.47Z" transform="translate(-115.73 -20.73)"/><path class="a" d="M129.47,24.78a6.08,6.08,0,0,1,4.64-2.27c2.65,0,5.9,1.78,9.39,5.14a43.49,43.49,0,0,1,3.29,3.54A10.11,10.11,0,0,1,148,29.83c-3.33-3.95-8.66-9.09-13.85-9.09a7.81,7.81,0,0,0-6,2.86c-.55.62-1.08,1.23-1.57,1.83a12.55,12.55,0,0,1,1.7.72C128.66,25.7,129.06,25.24,129.47,24.78Z" transform="translate(-115.73 -20.73)"/><path class="a" d="M151.09,28c-1.08-1.43-3.06-2.16-5.89-2.16-5.28,0-12.3,2.5-15.3,3.57-6,2.14-16.1,9.72-13.84,16.54,1.26,3.83,4.49,7.87,8.85,11.07s9.58,5.2,14,5.2h0a12.25,12.25,0,0,0,9.43-4c3-3.29,4.91-9.2,5.22-16.22C153.77,35.92,152.8,30.31,151.09,28Zm1.2,13.92c-.3,6.73-2.08,12.36-4.9,15.45A11.07,11.07,0,0,1,138.86,61h0c-9.17,0-19.34-8.44-21.65-15.43-1.13-3.42,1.75-7,3.57-8.83a27.91,27.91,0,0,1,9.53-6.19c2.94-1,9.82-3.5,14.89-3.5,2.42,0,4.08.57,4.91,1.69C151.62,30.77,152.53,36.31,152.29,41.94Z" transform="translate(-115.73 -20.73)"/><path class="a" d="M131.34,61a9.7,9.7,0,0,1-7-2.5,4.64,4.64,0,0,1-1.23,1.3,11.64,11.64,0,0,0,8.2,3c3.57,0,7.82-1.14,12.68-3.41a5.12,5.12,0,0,0-.78-1.59C138.64,59.88,134.65,61,131.34,61Z" transform="translate(-115.73 -20.73)"/><path class="a" d="M155.13,47.79c.88-5.1-1.57-10.17-3.87-13.62a53.85,53.85,0,0,0-3.3-4.34,10.11,10.11,0,0,0-1.17,1.36,49.31,49.31,0,0,1,3,4c2.15,3.22,4.45,8,3.56,12.54A13.42,13.42,0,0,1,155.13,47.79Z" transform="translate(-115.73 -20.73)"/><path class="a" d="M128.28,26.15a12.55,12.55,0,0,0-1.7-.72c-5,6.15-7,11.44-7.42,17.64h1.77C121.37,37.09,123.27,32.12,128.28,26.15Z" transform="translate(-115.73 -20.73)"/><rect class="b" width="40" height="42"/></svg>